<svg xmlns="http://www.w3.org/2000/svg" xml:space="preserve" width="268.086" height="158.844" fill="#fff">
  <path d="M12.438 156.555c-.578 0-.867.265-.867.818v.435c0 .698-.386 1.036-1.132 1.036H1.114c-.675 0-1.012-.338-1.012-1.013v-14.455c0-.676.337-1.013 1.012-1.013h8.721c.868 0 1.301.386 1.301 1.182v.385c0 .578.289.867.843.867h.458c.675 0 1.012.386 1.012 1.181v2.482c0 .649-.313.963-.916.963h-.289c-.506 0-.771.24-.771.747v.481c0 .506.265.747.771.747h.554c.602 0 .915.361.915 1.061v2.986c0 .747-.265 1.109-.819 1.109h-.456zm-4.024-9.445c0-.602-.289-.915-.843-.915h-2c-.41 0-.602.241-.602.698v1.542c0 .362.192.53.554.53h2.144c.506 0 .747-.289.747-.844v-1.011zm.241 5.903c0-.554-.241-.843-.747-.843H5.523c-.361 0-.554.192-.554.602v1.494c0 .458.192.699.602.699h2.24c.555 0 .844-.29.844-.893v-1.059zM32.938 156.41c-.554 0-.819.241-.819.724v.578c0 .747-.458 1.133-1.35 1.133h-6.938c-.892 0-1.349-.386-1.349-1.133v-.578c0-.482-.265-.724-.819-.724h-.361c-.651 0-.988-.408-.988-1.253v-9.106c0-.843.337-1.253.988-1.253h.361c.555 0 .819-.241.819-.723v-.603c0-.747.458-1.108 1.349-1.108h6.938c.892 0 1.35.361 1.35 1.108v.603c0 .481.265.723.819.723h.362c.651 0 .988.41.988 1.253v9.106c0 .845-.337 1.253-.988 1.253h-.362zm-3.541-8.914c0-.603-.289-.892-.843-.892h-2.53c-.554 0-.819.289-.819.892v6.192c0 .602.265.915.819.915h2.53c.554 0 .843-.313.843-.915v-6.192zM51.319 158.844c-.747 0-1.108-.362-1.108-1.085v-3.324c0-.892-.434-1.326-1.301-1.326h-2.193c-.361 0-.554.217-.554.651v3.999c0 .723-.362 1.085-1.084 1.085H42.38c-.723 0-1.084-.29-1.084-.893v-14.575c0-.676.337-1.013 1.012-1.013h8.529c.892 0 1.35.361 1.35 1.108v.603c0 .481.265.723.819.723h.603c.65 0 .987.41.987 1.253v2.987c0 .747-.313 1.133-.939 1.133h-.458c-.505 0-.771.24-.771.747v.675c0 .457.266.698.771.698h.651c.747 0 1.108.409 1.108 1.229v4.24c0 .723-.362 1.085-1.084 1.085h-2.555zm-1.879-11.348c0-.603-.265-.892-.819-.892h-1.879c-.385 0-.578.193-.578.604v1.71c0 .338.168.506.482.506h1.976c.554 0 .819-.337.819-.988v-.94zM73.652 156.073c-.554 0-.819.241-.819.724v.697c0 .893-.53 1.351-1.566 1.351h-8.673c-.603 0-.892-.29-.892-.893v-14.696c0-.603.289-.892.892-.892h8.673c1.036 0 1.566.435 1.566 1.325v.699c0 .506.265.747.819.747h.65c.65 0 .988.409.988 1.253v8.432c0 .843-.337 1.253-.988 1.253h-.65zm-3.229-8.095c0-.916-.434-1.374-1.325-1.374h-2.072c-.313 0-.458.193-.458.554v6.867c0 .385.145.578.458.578h2.072c.892 0 1.325-.458 1.325-1.397v-5.228zM83.335 158.844c-.675 0-1.012-.338-1.012-1.013v-14.455c0-.676.337-1.013 1.012-1.013h9.468c.747 0 1.133.361 1.133 1.108v1.976c0 .747-.386 1.132-1.133 1.132h-4.939c-.458 0-.674.241-.674.699v.675c0 .434.216.65.674.65h4.77c.747 0 1.132.361 1.132 1.108v1.493c0 .747-.385 1.133-1.132 1.133h-4.77c-.458 0-.674.217-.674.65v.94c0 .409.216.602.674.602h5.276c.747 0 1.133.386 1.133 1.132v2.049c0 .747-.386 1.133-1.133 1.133h-9.805zM111.04 158.844c-.747 0-1.108-.362-1.108-1.085v-3.324c0-.892-.434-1.326-1.301-1.326h-2.193c-.361 0-.554.217-.554.651v3.999c0 .723-.362 1.085-1.084 1.085h-2.699c-.722 0-1.084-.29-1.084-.893v-14.575c0-.676.337-1.013 1.012-1.013h8.529c.892 0 1.349.361 1.349 1.108v.603c0 .481.265.723.819.723h.603c.65 0 .988.41.988 1.253v2.987c0 .747-.313 1.133-.94 1.133h-.458c-.506 0-.771.24-.771.747v.675c0 .457.265.698.771.698h.651c.747 0 1.108.409 1.108 1.229v4.24c0 .723-.361 1.085-1.084 1.085h-2.554zm-1.879-11.348c0-.603-.265-.892-.819-.892h-1.879c-.386 0-.578.193-.578.604v1.71c0 .338.168.506.481.506h1.976c.554 0 .819-.337.819-.988v-.94zM147.658 158.844c-.65 0-.988-.362-.988-1.062v-2.674c0-.313-.144-.458-.458-.458h-.457c-.386 0-.578-.216-.578-.649v-2.867c0-.362-.145-.555-.434-.555h-1.229c-.289 0-.435.192-.435.555v2.867c0 .434-.192.649-.578.649h-.458c-.29 0-.434.169-.434.53v2.771c0 .603-.313.893-.963.893h-2.916c-.65 0-.987-.362-.987-1.062v-2.553c0-.41-.193-.603-.579-.603h-.626c-.626 0-.939-.361-.939-1.108v-2.795c0-.409-.192-.603-.578-.603h-.41c-.626 0-.939-.386-.939-1.181v-5.517c0-.699.361-1.061 1.06-1.061h2.458c.699 0 1.061.289 1.061.892V146c0 .36.168.554.481.554h.386c.313 0 .458.169.458.53v3.107c0 .289.121.435.385.435h1.157c.265 0 .385-.146.385-.435v-3.107c0-.361.168-.53.481-.53h.482c.313 0 .458-.193.458-.554v-2.747c0-.603.361-.892 1.084-.892h2.168c.698 0 1.06.289 1.06.892V146c0 .36.169.554.482.554h.458c.313 0 .481.169.481.53v3.107c0 .289.12.435.385.435h1.157c.265 0 .385-.146.385-.435v-3.107c0-.361.169-.53.482-.53h.362c.313 0 .457-.193.457-.554v-2.747c0-.603.361-.892 1.06-.892h2.458c.699 0 1.061.361 1.061 1.061v5.517c0 .795-.313 1.181-.94 1.181h-.409c-.386 0-.578.193-.578.603v2.795c0 .747-.313 1.108-.939 1.108h-.651c-.36 0-.554.192-.554.603v2.553c0 .699-.337 1.062-.988 1.062h-2.747zM171.652 158.844c-.746 0-1.108-.29-1.108-.893v-1.902c0-.289-.169-.435-.481-.435h-3.276c-.314 0-.482.146-.482.435v1.902c0 .603-.361.893-1.084.893h-2.577c-.747 0-1.109-.362-1.109-1.085v-8.818c0-.771.313-1.156.964-1.156h.41c.409 0 .602-.217.602-.627v-1.132c0-.747.337-1.107.988-1.107h.626c.41 0 .604-.193.604-.603v-.916c0-.699.337-1.036 1.011-1.036h3.397c.675 0 1.012.337 1.012 1.036v.916c0 .409.192.603.603.603h.626c.651 0 .964.36.964 1.107v1.132c0 .41.217.627.626.627h.41c.626 0 .94.386.94 1.156v8.818c0 .723-.362 1.085-1.085 1.085h-2.581zm-1.036-8.65c0-.313-.145-.458-.409-.458h-.241c-.36 0-.554-.216-.554-.626v-1.132c0-.265-.121-.41-.386-.41h-1.181c-.265 0-.386.146-.386.41v1.132c0 .41-.191.626-.554.626h-.241c-.265 0-.409.169-.409.53v1.301c0 .217.145.338.409.338h3.542c.265 0 .409-.145.409-.41v-1.301zM183.311 158.844c-.674 0-1.012-.338-1.012-1.013v-14.359c0-.747.361-1.108 1.085-1.108h2.697c.724 0 1.084.361 1.084 1.108v10.191c0 .457.193.698.604.698h4.77c.747 0 1.132.362 1.132 1.109v2.24c0 .747-.385 1.133-1.132 1.133h-9.228zM201.042 158.844c-.675 0-1.012-.338-1.012-1.013v-14.359c0-.747.36-1.108 1.084-1.108h2.697c.724 0 1.085.361 1.085 1.108v10.191c0 .457.192.698.603.698h4.77c.747 0 1.133.362 1.133 1.109v2.24c0 .747-.386 1.133-1.133 1.133h-9.227zM218.772 158.844c-.675 0-1.012-.338-1.012-1.013v-14.455c0-.676.337-1.013 1.012-1.013h9.469c.746 0 1.132.361 1.132 1.108v1.976c0 .747-.386 1.132-1.132 1.132h-4.938c-.458 0-.676.241-.676.699v.675c0 .434.218.65.676.65h4.77c.747 0 1.132.361 1.132 1.108v1.493c0 .747-.385 1.133-1.132 1.133h-4.77c-.458 0-.676.217-.676.65v.94c0 .409.218.602.676.602h5.275c.747 0 1.132.386 1.132 1.132v2.049c0 .747-.385 1.133-1.132 1.133h-9.806zM240.839 158.844c-.724 0-1.084-.386-1.084-1.133v-10.167c0-.458-.193-.699-.603-.699h-2.36c-.747 0-1.133-.385-1.133-1.132v-2.241c0-.747.386-1.108 1.133-1.108h10.769c.771 0 1.157.361 1.157 1.108v2.241c0 .747-.386 1.132-1.157 1.132h-2.337c-.41 0-.602.241-.602.699v10.167c0 .747-.362 1.133-1.109 1.133h-2.674zM266.857 156.723c-.433 0-.649.241-.649.699v.337c0 .723-.387 1.085-1.182 1.085h-7.42c-.723 0-1.084-.338-1.084-.988v-.386c0-.409-.24-.626-.723-.626h-.241c-.65 0-.964-.337-.964-1.013v-1.372c0-.676.337-1.013.988-1.013h2.867c.577 0 .866.266.866.819v.289c0 .361.193.554.556.554h2.697c.458 0 .699-.265.699-.795v-1.012c0-.53-.265-.795-.771-.795h-4.892c-.723 0-1.084-.361-1.084-1.084v-.337c0-.458-.217-.676-.65-.676h-.289c-.626 0-.94-.36-.94-1.084v-3.613c0-.747.338-1.108.988-1.108h.217c.506 0 .747-.217.747-.675v-.506c0-.699.409-1.061 1.229-1.061h6.843c.843 0 1.253.337 1.253 1.013v.458c0 .433.241.649.747.649h.337c.602 0 .916.386.916 1.133v.771c0 .746-.338 1.107-.988 1.107h-3.253c-.409 0-.626-.217-.626-.627v-.577c0-.361-.193-.53-.578-.53h-2.41c-.433 0-.649.217-.649.627v1.276c0 .506.24.746.747.746h4.865c.795 0 1.182.362 1.182 1.061v.362c0 .458.217.674.649.674h.314c.602 0 .915.361.915 1.085v4.07c0 .699-.313 1.061-.915 1.061h-.314z"/>
  <g>
    <path d="M0 7.738v13.818c0 5.157 2.578 7.737 7.738 7.737H79.04c4.235 0 6.446 2.396 6.446 7.003v7.738c0 4.238-1.842 6.446-5.711 6.446H7.738c-4.035 0-6.483 1.586-7.363 4.74L0 55.196v12.053c0 5.158 2.578 7.738 7.738 7.738h73.88c3.868 0 5.711 2.211 5.711 6.449v8.106c0 4.605-2.209 6.816-6.447 6.816H7.738c-5.16 0-7.738 2.58-7.738 7.738v14.188c0 5.157 2.578 7.737 7.738 7.737H100.962c5.715 0 8.662-2.58 8.662-7.923v-3.314c0-4.238 2.211-6.266 6.633-6.266h3.5c4.238 0 6.265-2.764 6.265-8.476V77.198c0-5.342-2.396-8.106-7.003-8.106h-4.238c-3.869 0-5.895-1.843-5.895-5.712v-3.684c0-3.869 2.025-5.712 5.895-5.712h2.211c4.607 0 7.004-2.396 7.004-7.371V27.637c0-6.08-2.58-9.026-7.738-9.026h-3.503c-4.235 0-6.446-2.211-6.446-6.634V9.029c0-6.08-3.318-9.029-9.949-9.029H7.738C2.578 0 0 2.58 0 7.738z"/>
  </g>
  <g>
    <path d="M260.247 0h-13.818c-5.157 0-7.737 2.578-7.737 7.738V79.04c0 4.235-2.396 6.446-7.003 6.446h-7.738c-4.238 0-6.446-1.841-6.446-5.71V7.738c0-4.035-1.586-6.483-4.74-7.363L212.79 0h-12.053c-5.158 0-7.738 2.578-7.738 7.738v73.88c0 3.868-2.211 5.711-6.449 5.711h-8.106c-4.604 0-6.815-2.209-6.815-6.447V7.738c0-5.16-2.58-7.738-7.738-7.738h-14.188c-5.158 0-7.738 2.578-7.738 7.738V100.962c0 5.715 2.58 8.662 7.923 8.662h3.315c4.238 0 6.265 2.211 6.265 6.633v3.5c0 4.238 2.765 6.265 8.476 6.265h22.846c5.342 0 8.106-2.396 8.106-7.003v-4.238c0-3.869 1.843-5.895 5.712-5.895h3.684c3.869 0 5.712 2.025 5.712 5.895v2.211c0 4.607 2.396 7.004 7.371 7.004h18.977c6.08 0 9.026-2.58 9.026-7.738v-3.503c0-4.235 2.211-6.446 6.634-6.446h2.947c6.08 0 9.029-3.318 9.029-9.949V7.738C267.985 2.578 265.405 0 260.247 0z"/>
  </g>
</svg>
